<?xml version="1.0" standalone="no"?>
<!DOCTYPE svg PUBLIC "-//W3C//DTD SVG 20010904//EN"
 "http://www.w3.org/TR/2001/REC-SVG-20010904/DTD/svg10.dtd">
<svg version="1.0" xmlns="http://www.w3.org/2000/svg"
 width="1000.000000pt" height="1000.000000pt" viewBox="0 0 1000.000000 1000.000000"
 preserveAspectRatio="xMidYMid meet">
<metadata>
Created by potrace 1.11, written by Peter Selinger 2001-2013
</metadata>
<g transform="translate(0.000000,1000.000000) scale(0.100000,-0.100000)"
fill="#000000" stroke="none">
<path d="M3295 9994 c-1172 -27 -1816 -122 -2262 -334 -601 -286 -876 -827
-972 -1910 -51 -573 -61 -1000 -61 -2750 0 -1750 10 -2177 61 -2750 96 -1083
371 -1624 972 -1910 399 -190 885 -274 1862 -322 370 -18 3840 -18 4210 0 977
48 1463 132 1862 322 601 286 876 827 972 1910 51 573 61 1000 61 2750 0 1750
-10 2177 -61 2750 -96 1083 -371 1624 -972 1910 -393 187 -869 271 -1827 321
-194 10 -3473 21 -3845 13z m1695 -2602 c0 -26 -362 -1087 -380 -1112 -12 -17
-40 -40 -63 -53 l-42 -22 -852 -3 -853 -3 0 -499 0 -500 731 0 c581 0 730 -3
727 -12 -3 -7 -71 -212 -152 -455 -141 -424 -149 -443 -185 -476 -26 -23 -56
-39 -90 -46 -34 -7 -221 -11 -541 -11 l-490 0 0 -800 0 -800 -492 0 c-271 0
-524 5 -561 10 -173 25 -304 152 -336 324 -15 84 -15 4048 0 4132 31 168 164
299 327 323 71 11 3252 14 3252 3z m1854 -19 c78 -30 155 -90 195 -151 24 -38
219 -610 757 -2224 398 -1195 724 -2185 724 -2201 0 -62 -51 -140 -115 -175
-27 -15 -92 -17 -615 -20 l-585 -3 -797 2393 c-439 1316 -798 2397 -798 2401
0 5 264 7 588 5 577 -3 588 -3 646 -25z m-1144 -1488 l295 -885 -379 -1138
c-208 -625 -389 -1154 -402 -1174 -13 -21 -43 -48 -67 -60 -42 -23 -42 -23
-589 -26 -302 -2 -548 1 -548 5 0 15 1385 4163 1390 4163 3 0 138 -398 300
-885z"/>
</g>
</svg>
